# xmcd
#
# Track frame offsets: 
#        150
#        16510
#        35249
#        52190
#        70969
#        83720
#        102533
#        116405
#        129790
#        149809
#        166763
#        182873
#        199522
#        216478
#
# Disc length: 3184 seconds
#
# Revision: 0
# Processed by: cddbd v1.5.2PL0 Copyright (c) Steve Scherf et al.
# Submitted via: ExactAudioCopyFreeDBPlugin 1.0
#
DISCID=cc0c6e0e
DTITLE=Chrisette Michele - Milestone (Deluxe Edition)
DYEAR=2016
DGENRE=R&B
TTITLE0=Diamond Letter
TTITLE1=Steady
TTITLE2=Meant To Be (feat. Meet Sims)
TTITLE3=Soul Mate
TTITLE4=Unbreakable
TTITLE5=To The Moon
TTITLE6=Make Me Fall
TTITLE7=Equal (feat. Rick Ross)
TTITLE8=These Stones
TTITLE9=Indie Girl
TTITLE10=Us Against The World
TTITLE11=Reinvent The Wheel (feat. Mali Music)
TTITLE12=Powerful
TTITLE13=Reckless Lover
EXTD=
EXTT0=
EXTT1=
EXTT2=
EXTT3=
EXTT4=
EXTT5=
EXTT6=
EXTT7=
EXTT8=
EXTT9=
EXTT10=
EXTT11=
EXTT12=
EXTT13=
PLAYORDER=
